<?xml version="1.0" standalone="no"?>
<!DOCTYPE svg PUBLIC "-//W3C//DTD SVG 20010904//EN"
 "http://www.w3.org/TR/2001/REC-SVG-20010904/DTD/svg10.dtd">
<svg version="1.0" xmlns="http://www.w3.org/2000/svg"
 width="2100.000000pt" height="1144.000000pt" viewBox="0 0 2100.000000 1144.000000"
 preserveAspectRatio="xMidYMid meet">

<g transform="translate(0.000000,1144.000000) scale(0.100000,-0.100000)"
fill="#000000" stroke="none">
<path d="M320 8305 l0 -2865 10100 0 10100 0 0 410 0 410 -6060 0 -6060 0 0
410 0 410 6060 0 6060 0 0 405 0 405 -6060 0 -6060 0 0 414 0 415 6033 -6
c3318 -4 6045 -3 6060 1 l27 6 0 405 0 405 -6060 0 -6060 0 0 410 0 410 6060
0 6060 0 -2 408 -3 407 -10097 3 -10098 2 0 -2865z m620 2468 l32 -102 115 -3
114 -3 -90 -65 c-50 -35 -91 -67 -91 -71 0 -4 4 -18 9 -32 28 -73 58 -186 48
-180 -7 4 -48 33 -91 65 -44 32 -84 58 -89 58 -5 0 -49 -29 -98 -65 -49 -36
-89 -62 -89 -58 0 5 15 54 34 111 l34 103 -72 53 c-39 29 -82 60 -95 69 -24
16 -20 16 94 19 l119 3 35 107 c19 59 38 104 42 100 4 -4 22 -53 39 -109z
m1061 10 l34 -108 114 -5 114 -5 -83 -60 c-46 -33 -87 -62 -91 -65 -5 -3 7
-55 26 -115 19 -60 33 -110 32 -111 -1 -1 -42 27 -91 62 -49 35 -93 64 -97 64
-5 0 -48 -29 -96 -64 -49 -36 -89 -63 -90 -62 -1 1 13 51 32 111 19 60 31 112
26 115 -4 3 -45 32 -91 65 l-83 60 114 5 114 5 35 108 c19 59 37 107 40 107 3
0 22 -48 41 -107z m1064 -13 l31 -95 119 -3 c114 -3 118 -3 94 -19 -13 -9 -56
-41 -96 -70 l-72 -52 35 -103 c18 -56 34 -106 34 -110 0 -5 -40 21 -89 57 -49
36 -93 65 -98 65 -5 0 -45 -26 -89 -58 -43 -32 -84 -61 -91 -65 -10 -6 20 107
48 180 5 14 9 28 9 32 0 4 -41 36 -91 71 l-90 65 115 3 115 3 26 85 c14 47 31
98 37 112 12 31 9 36 53 -98z m1060 10 l37 -110 116 0 116 0 -92 -67 c-51 -36
-92 -72 -92 -78 0 -6 15 -57 34 -113 19 -56 33 -102 30 -102 -2 0 -43 29 -91
65 -49 36 -92 65 -98 65 -5 0 -49 -29 -97 -65 -49 -36 -88 -59 -88 -52 0 7 14
53 30 102 17 49 30 94 30 100 0 6 -41 42 -92 78 l-92 67 116 0 116 0 37 110
c20 61 38 110 40 110 2 0 20 -49 40 -110z m1066 -7 l33 -102 114 -3 113 -3
-90 -65 c-50 -35 -91 -67 -91 -70 0 -3 16 -53 35 -110 19 -57 34 -105 32 -106
-1 -1 -42 26 -91 62 -49 35 -93 64 -99 64 -5 0 -49 -29 -98 -65 -49 -36 -89
-62 -89 -57 0 4 16 54 34 110 l35 103 -72 52 c-40 29 -83 61 -96 70 -24 16
-20 16 94 19 l119 3 35 107 c19 59 38 104 42 100 4 -4 22 -53 40 -109z m1208
-103 l114 -5 -83 -60 c-46 -33 -87 -62 -91 -65 -4 -3 8 -55 27 -114 19 -60 33
-110 32 -112 -2 -1 -41 26 -88 61 -47 35 -90 64 -96 64 -6 1 -51 -28 -100 -63
-49 -36 -90 -63 -91 -62 -2 1 14 51 33 110 21 62 33 111 27 115 -5 3 -46 33
-92 66 l-83 60 114 3 114 3 28 87 c50 154 44 151 85 27 l36 -110 114 -5z m915
108 l32 -103 118 -3 118 -3 -91 -65 c-50 -36 -91 -70 -91 -77 0 -7 14 -55 30
-107 16 -52 30 -98 30 -102 0 -4 -41 22 -90 58 -51 37 -96 64 -104 61 -8 -3
-48 -30 -88 -60 -40 -29 -78 -56 -84 -60 -7 -4 4 41 23 99 18 59 33 110 31
115 -2 4 -43 38 -93 74 l-90 65 117 0 116 0 32 98 c17 53 34 103 36 111 7 22
13 9 48 -101z m-5845 -755 l32 -102 117 -3 117 -3 -93 -68 c-50 -37 -92 -69
-92 -70 0 -2 16 -50 35 -107 19 -57 33 -106 30 -108 -2 -2 -45 25 -95 62 l-91
67 -32 -23 c-18 -12 -58 -42 -90 -66 -32 -24 -61 -42 -64 -39 -3 3 11 53 30
111 l35 104 -89 64 c-49 34 -89 66 -89 70 0 4 50 9 112 10 l112 3 35 107 c19
59 38 104 42 100 3 -4 20 -53 38 -109z m3186 7 l36 -109 117 -3 117 -3 -87
-63 c-48 -35 -90 -67 -93 -71 -2 -5 10 -56 29 -115 18 -58 31 -106 28 -106 -3
0 -42 26 -86 58 -45 32 -86 61 -92 65 -6 3 -50 -23 -99 -58 -49 -36 -90 -63
-92 -61 -3 2 9 48 26 102 17 54 31 103 31 109 0 5 -42 39 -92 75 l-91 65 119
5 118 5 35 108 c18 59 35 107 37 107 1 0 19 -49 39 -110z m1066 -7 l33 -102
116 -3 115 -3 -92 -68 c-51 -38 -93 -70 -93 -71 0 -1 16 -49 35 -106 19 -57
33 -105 31 -107 -2 -3 -45 25 -96 62 l-91 66 -91 -66 c-49 -36 -92 -64 -94
-62 -2 2 11 52 30 110 l34 107 -89 62 c-48 35 -88 66 -89 71 0 4 51 7 113 7
l114 0 33 110 c18 61 37 107 41 103 4 -4 22 -54 40 -110z m-3191 5 l35 -103
113 -3 c61 -1 112 -6 112 -10 -1 -4 -41 -35 -90 -70 l-88 -63 35 -105 c19 -58
33 -107 30 -110 -3 -3 -46 25 -95 61 l-91 66 -91 -66 c-51 -37 -94 -65 -96
-62 -2 2 12 50 31 107 19 57 35 105 35 106 0 1 -42 33 -92 71 l-93 68 116 3
115 3 34 104 c19 58 36 105 40 105 3 0 21 -46 40 -102z m1062 0 l35 -103 118
-5 118 -5 -83 -60 c-46 -33 -88 -63 -93 -67 -7 -4 1 -44 22 -113 18 -59 31
-108 29 -111 -3 -2 -44 25 -93 61 -49 35 -93 61 -99 58 -6 -4 -47 -33 -92 -65
-44 -32 -83 -58 -87 -58 -3 0 10 46 29 102 19 56 34 106 34 110 0 5 -41 39
-92 76 l-92 67 117 3 116 3 33 104 c18 58 36 105 40 105 3 0 22 -46 40 -102z
m3190 0 l35 -103 111 -3 c62 -1 112 -6 111 -10 0 -4 -40 -36 -88 -70 l-89 -64
35 -105 c19 -57 33 -107 30 -110 -3 -3 -32 15 -64 39 -32 24 -72 54 -90 66
l-32 23 -91 -67 c-50 -37 -93 -64 -95 -62 -3 2 11 51 30 108 19 57 35 105 35
107 0 1 -42 33 -92 70 l-93 68 117 3 116 3 33 104 c18 58 36 105 40 105 4 0
23 -46 41 -102z m1065 -8 l29 -95 118 -5 118 -5 -90 -65 c-50 -36 -91 -70 -91
-76 -1 -5 14 -56 33 -112 19 -56 32 -102 28 -102 -4 0 -47 29 -96 65 -49 35
-94 61 -100 58 -6 -4 -44 -31 -84 -60 -40 -30 -80 -57 -87 -60 -10 -3 -4 26
20 98 19 57 35 108 35 113 -1 6 -42 40 -93 76 l-92 65 117 3 117 3 32 97 c17
53 34 101 36 105 10 16 21 -8 50 -103z m-6909 -750 l29 -95 116 -3 c65 -1 117
-6 117 -10 0 -4 -41 -36 -90 -71 -50 -36 -90 -68 -90 -72 0 -4 4 -18 9 -32 5
-13 20 -60 34 -105 29 -95 33 -94 -82 -8 -41 31 -79 56 -84 56 -5 0 -49 -29
-98 -65 -49 -36 -89 -62 -89 -57 0 4 16 54 34 110 l35 103 -97 72 -97 72 121
3 121 3 33 105 c18 58 36 102 41 97 4 -4 20 -51 37 -103z m1061 5 l32 -105
114 0 c63 0 115 -4 115 -8 0 -7 -88 -74 -172 -133 -5 -3 7 -54 26 -114 19 -60
34 -110 33 -111 -1 -2 -42 26 -91 62 -49 35 -93 64 -97 64 -5 0 -48 -29 -96
-64 -49 -36 -89 -63 -90 -62 -1 1 13 51 32 111 19 60 31 112 26 115 -61 40
-171 125 -171 132 0 4 52 8 115 8 l115 0 32 105 c18 58 35 105 38 105 4 0 21
-47 39 -105z m1066 -14 l30 -93 118 1 c64 1 117 0 117 -3 0 -3 -43 -37 -94
-75 l-95 -70 35 -103 c19 -56 33 -106 32 -109 -2 -4 -41 21 -88 56 -47 35 -90
64 -96 64 -5 1 -50 -28 -99 -64 -49 -35 -90 -63 -91 -62 -2 1 13 50 32 107 18
58 34 108 34 111 0 3 -40 34 -90 70 -49 35 -90 68 -90 72 0 4 50 7 111 6 61
-1 114 2 118 7 5 5 18 42 30 82 12 40 27 85 33 100 12 31 9 36 53 -97z m1059
12 l36 -108 116 3 c78 2 114 0 110 -7 -4 -6 -45 -38 -91 -72 -47 -34 -85 -67
-85 -73 0 -7 14 -52 30 -101 17 -49 30 -95 30 -102 0 -7 -39 16 -87 52 -49 36
-92 65 -98 65 -5 0 -49 -29 -97 -65 -49 -36 -88 -59 -88 -52 0 7 14 53 30 102
17 49 30 94 30 100 0 7 -42 43 -92 81 l-93 69 120 3 120 3 33 104 c18 58 34
105 37 105 2 0 19 -48 39 -107z m1066 -5 l32 -98 114 0 c63 0 114 -3 114 -7 0
-5 -41 -37 -90 -72 -50 -36 -90 -67 -90 -71 0 -3 16 -53 35 -110 19 -57 34
-105 32 -106 -2 -2 -43 26 -92 61 -49 36 -94 65 -99 65 -6 0 -49 -29 -96 -65
-47 -35 -86 -61 -88 -57 -1 4 13 54 32 110 l35 103 -89 66 c-50 36 -90 70 -90
74 0 5 51 9 113 9 l113 0 34 105 c19 58 37 102 41 98 3 -5 21 -52 39 -105z
m1208 -103 c61 0 112 -3 112 -6 0 -4 -93 -75 -171 -129 -5 -3 8 -55 27 -114
19 -60 33 -110 31 -112 -1 -1 -41 26 -90 62 -48 35 -91 64 -96 64 -4 0 -48
-29 -97 -64 -49 -36 -90 -63 -91 -62 -2 1 14 51 33 110 21 62 33 111 27 115
-63 43 -173 126 -173 130 0 3 51 6 112 6 l113 0 32 90 c17 50 34 99 38 110 5
15 17 -10 43 -90 l37 -110 113 0z m916 103 l32 -103 117 0 c64 0 117 -1 117
-2 0 -1 -40 -32 -90 -69 -49 -36 -90 -71 -90 -78 0 -7 13 -55 30 -106 16 -52
30 -98 30 -103 0 -4 -40 22 -89 58 -49 36 -93 65 -98 65 -5 0 -49 -29 -96 -65
-48 -35 -87 -58 -87 -51 0 7 14 52 30 101 17 49 30 94 30 100 0 6 -40 40 -90
76 -49 35 -90 66 -90 69 0 3 49 3 108 2 81 -3 111 0 119 10 6 7 23 51 37 98
35 112 36 114 42 107 3 -3 20 -52 38 -109z m-5844 -755 l31 -102 117 -3 117
-3 -93 -68 c-50 -37 -92 -69 -92 -70 0 -2 16 -50 35 -107 19 -57 33 -105 31
-108 -3 -2 -45 26 -95 63 l-91 67 -92 -67 c-51 -36 -94 -62 -95 -58 -2 5 12
55 31 111 l35 102 -95 68 -95 67 117 5 118 5 35 107 c19 59 38 104 42 100 4
-4 21 -53 39 -109z m1061 2 l32 -104 119 -3 119 -3 -94 -68 -95 -67 35 -106
c18 -59 32 -109 29 -111 -3 -3 -31 15 -63 39 -32 24 -73 54 -91 67 l-32 22
-91 -66 c-50 -37 -92 -65 -95 -63 -2 3 12 51 31 108 40 120 47 102 -74 189
l-84 61 120 0 120 0 34 109 c19 60 37 107 41 105 4 -3 21 -51 39 -109z m2127
-2 l33 -102 117 -3 116 -3 -92 -67 c-51 -37 -92 -71 -92 -76 0 -4 15 -54 34
-110 19 -56 32 -102 29 -102 -3 0 -46 29 -95 65 -53 39 -94 63 -101 58 -7 -4
-48 -33 -91 -65 -44 -32 -81 -56 -83 -54 -3 2 9 47 26 100 17 53 31 102 31
109 0 6 -41 41 -91 77 l-91 65 118 5 118 5 34 108 c19 60 37 105 41 100 4 -4
22 -54 39 -110z m1063 0 l33 -103 120 0 120 0 -97 -71 c-53 -39 -97 -71 -97
-73 0 -1 16 -49 35 -106 19 -57 33 -105 31 -108 -3 -2 -45 26 -95 63 l-91 67
-91 -67 c-50 -36 -93 -65 -95 -63 -2 2 12 52 31 111 l33 107 -96 70 -97 70
121 0 121 0 33 110 c18 61 37 107 41 103 4 -4 22 -54 40 -110z m-2129 5 l35
-103 118 -5 118 -5 -91 -65 c-50 -36 -92 -70 -92 -76 0 -5 15 -56 33 -112 18
-56 30 -102 26 -102 -3 0 -26 15 -50 33 -24 18 -65 48 -90 66 l-46 33 -90 -66
c-50 -36 -93 -66 -96 -66 -3 0 10 46 29 102 19 56 34 107 34 112 -1 6 -42 40
-93 76 l-92 65 117 3 117 3 33 104 c18 58 36 105 40 105 3 0 22 -46 40 -102z
m3190 0 l35 -103 117 -5 117 -5 -95 -68 -94 -68 34 -102 c19 -56 33 -105 31
-110 -1 -5 -39 18 -82 50 -44 32 -86 62 -92 66 -8 5 -48 -18 -103 -59 -50 -36
-92 -65 -94 -63 -2 2 11 51 30 109 18 58 34 106 34 107 0 1 -42 33 -92 70
l-93 68 117 3 116 3 33 104 c18 58 36 105 40 105 4 0 23 -46 41 -102z m1066
-8 l29 -95 118 -5 118 -5 -91 -65 c-50 -36 -92 -70 -92 -76 0 -5 15 -56 34
-112 19 -56 32 -102 29 -102 -4 0 -44 28 -91 62 -47 34 -90 61 -97 61 -7 0
-50 -27 -97 -61 -47 -34 -87 -62 -91 -62 -3 0 10 46 29 102 19 56 34 107 34
112 0 6 -41 40 -92 76 l-91 65 116 3 116 3 32 97 c17 53 34 101 36 105 10 16
21 -8 51 -103z m-6907 -758 l34 -103 105 1 c58 1 109 1 115 1 5 -1 -30 -30
-79 -65 -48 -36 -90 -67 -93 -70 -3 -2 9 -49 27 -103 17 -54 33 -104 36 -111
5 -16 0 -13 -100 60 -44 32 -84 58 -89 58 -5 0 -50 -29 -98 -65 -49 -36 -89
-62 -89 -58 0 3 14 48 30 100 17 51 30 100 30 108 0 8 -41 43 -92 80 -50 36
-87 65 -82 66 5 0 54 0 109 -1 55 0 105 3 111 7 7 5 26 54 44 111 18 57 36 99
40 95 4 -4 23 -54 41 -111z m1060 11 l34 -108 113 0 c61 0 112 -3 112 -6 0 -4
-94 -75 -172 -129 -4 -3 8 -55 27 -115 19 -60 33 -110 32 -111 -1 -1 -41 26
-90 62 -48 35 -93 64 -100 63 -6 0 -50 -29 -97 -64 -47 -35 -86 -62 -88 -61
-1 2 13 52 32 112 19 59 31 111 27 114 -50 33 -171 125 -171 129 0 3 51 6 112
6 l113 0 35 108 c19 59 37 107 40 107 3 0 22 -48 41 -107z m1064 -13 l31 -95
110 -2 c60 -1 113 -2 118 -3 5 0 -31 -28 -79 -62 -48 -34 -90 -68 -92 -76 -3
-7 9 -57 26 -111 17 -54 31 -102 31 -105 0 -4 -40 23 -89 59 -49 36 -93 65
-98 65 -6 0 -50 -29 -99 -64 -49 -36 -90 -63 -91 -62 -2 1 13 49 32 106 19 58
34 108 33 112 -2 4 -43 37 -93 73 -49 36 -85 65 -80 66 6 0 55 0 111 -1 72 -1
103 3 110 12 6 7 20 47 33 88 13 41 28 86 33 100 12 29 9 34 53 -100z m1060 9
l37 -110 107 1 c58 1 110 1 115 1 5 -1 -32 -31 -82 -67 -51 -36 -92 -71 -92
-78 0 -7 15 -58 34 -114 19 -56 34 -102 32 -102 -1 0 -42 29 -91 65 -49 36
-95 65 -101 65 -6 0 -50 -29 -97 -65 -48 -35 -87 -58 -87 -51 0 7 14 52 30
101 17 49 30 94 30 101 0 7 -41 42 -92 78 -50 36 -87 66 -82 67 5 0 54 0 110
-1 72 -1 104 3 111 12 6 7 25 57 42 111 18 53 34 97 36 97 2 0 20 -50 40 -111z
m1066 -6 l33 -103 115 0 116 0 -90 -65 c-50 -36 -91 -69 -93 -73 -1 -4 14 -54
33 -112 19 -57 34 -105 32 -106 -1 -1 -42 26 -91 62 -49 35 -93 64 -99 64 -5
0 -49 -29 -98 -65 -49 -36 -89 -62 -89 -57 0 4 15 54 34 109 l34 101 -21 20
c-12 10 -52 40 -89 66 -38 26 -68 51 -68 54 0 4 50 7 112 7 l112 0 35 107 c19
59 38 104 42 100 4 -4 22 -53 40 -109z m1207 -98 c62 0 112 -3 112 -6 0 -4
-99 -79 -172 -130 -4 -3 8 -52 27 -109 19 -57 35 -108 35 -112 0 -4 -40 21
-90 57 -49 36 -94 65 -100 65 -5 0 -49 -29 -97 -64 -49 -36 -89 -63 -90 -62
-2 1 13 49 32 106 19 57 35 107 35 110 0 3 -40 35 -90 70 -49 35 -90 67 -90
70 0 3 51 5 112 5 l113 0 32 90 c17 50 34 99 38 110 5 15 17 -10 44 -90 l38
-110 111 0z m916 103 l32 -103 110 -2 c60 -1 113 -2 118 -3 5 0 -32 -29 -82
-65 -51 -37 -92 -71 -92 -78 0 -7 14 -55 30 -107 17 -51 30 -98 30 -102 0 -4
-39 21 -87 57 -49 36 -93 65 -99 65 -6 0 -46 -26 -90 -58 -43 -32 -84 -61 -90
-65 -6 -4 4 41 22 100 19 59 33 111 32 115 -2 4 -43 37 -92 73 l-90 65 111 0
c76 0 114 4 121 13 5 6 22 50 36 97 35 112 36 114 42 107 3 -3 20 -52 38 -109z
m-5845 -755 l31 -102 118 -3 117 -3 -93 -68 c-50 -37 -92 -69 -92 -70 0 -2 16
-50 35 -107 19 -57 33 -105 30 -108 -2 -2 -45 26 -95 62 l-91 67 -92 -66 c-50
-36 -93 -62 -94 -58 -2 5 12 55 31 111 l35 102 -89 63 c-49 34 -89 65 -90 69
0 4 50 9 112 10 l112 3 35 107 c19 59 38 104 42 100 4 -4 21 -53 38 -109z
m1061 4 l35 -102 113 -3 c61 -1 112 -6 112 -10 -1 -4 -41 -35 -90 -69 l-89
-63 36 -106 c19 -58 33 -107 30 -110 -3 -3 -46 25 -96 61 l-91 67 -91 -67
c-50 -37 -92 -65 -95 -63 -2 3 12 51 31 108 19 57 35 105 35 107 0 1 -42 33
-92 70 l-93 68 116 3 116 3 34 108 c19 60 36 107 39 104 3 -2 21 -50 40 -106z
m2125 3 l36 -109 116 -3 116 -3 -92 -67 c-104 -77 -99 -59 -50 -205 15 -46 25
-83 22 -83 -3 0 -46 29 -95 65 -53 39 -94 63 -101 58 -7 -4 -48 -33 -91 -65
-44 -32 -81 -56 -83 -54 -3 2 9 48 26 102 17 54 31 103 31 109 0 5 -41 39 -90
75 l-90 65 117 5 117 5 35 108 c18 59 35 107 37 107 1 0 19 -49 39 -110z
m1066 -7 l33 -102 115 -3 115 -3 -92 -69 c-51 -37 -92 -69 -92 -70 0 -1 16
-49 35 -106 19 -57 33 -105 31 -108 -3 -2 -45 26 -95 63 l-91 67 -91 -67 c-50
-36 -93 -64 -95 -62 -2 2 11 52 30 110 l34 107 -92 68 -91 67 116 3 116 3 33
110 c18 60 37 106 41 102 4 -4 22 -54 40 -110z m-2129 5 l35 -103 117 -5 118
-5 -91 -65 c-50 -36 -91 -69 -91 -73 0 -5 14 -54 31 -109 17 -54 29 -101 27
-104 -3 -2 -44 25 -93 61 -49 35 -93 61 -99 58 -6 -4 -47 -33 -92 -65 -44 -32
-83 -58 -87 -58 -3 0 10 46 29 102 19 56 34 107 34 112 -1 6 -42 40 -93 76
l-92 65 117 3 117 3 33 104 c18 58 36 105 40 105 3 0 22 -46 40 -102z m3190 0
l35 -103 111 -3 c62 -1 112 -6 112 -10 -1 -4 -41 -35 -90 -70 l-88 -63 34
-102 c19 -56 33 -105 31 -110 -1 -4 -44 22 -94 58 l-92 66 -91 -67 c-50 -36
-93 -64 -95 -62 -3 3 11 51 30 108 19 56 32 106 29 111 -2 4 -44 36 -92 71
l-87 63 117 3 117 3 32 104 c18 58 36 105 40 105 4 0 23 -46 41 -102z m1063
-6 l31 -97 118 -5 119 -5 -91 -65 c-50 -36 -92 -70 -92 -76 0 -5 15 -56 34
-112 19 -56 32 -102 28 -102 -4 0 -47 29 -96 65 -49 35 -94 61 -100 58 -6 -4
-47 -33 -92 -65 -44 -32 -83 -58 -87 -58 -3 0 10 46 29 102 19 56 34 107 34
112 0 6 -41 40 -92 76 l-91 65 116 3 116 3 32 97 c36 110 39 116 48 107 3 -3
20 -50 36 -103z m-6907 -752 l30 -95 116 -3 c64 -1 116 -6 116 -10 -1 -4 -41
-36 -90 -70 -50 -35 -90 -67 -90 -70 0 -4 16 -54 34 -112 19 -57 34 -106 32
-107 -1 -1 -44 28 -96 66 l-94 69 -56 -41 c-30 -22 -72 -53 -92 -70 -21 -16
-38 -25 -38 -21 0 4 14 49 30 101 17 51 30 100 30 107 0 8 -42 45 -92 83 l-93
68 121 3 121 3 33 105 c18 58 36 102 40 97 5 -4 22 -51 38 -103z m1061 5 l32
-105 114 0 c63 0 115 -4 115 -8 0 -4 -40 -37 -90 -71 -49 -35 -90 -64 -90 -65
0 -1 16 -50 35 -111 19 -60 33 -110 32 -111 -1 -1 -41 26 -90 62 -48 35 -92
64 -98 64 -6 0 -52 -30 -102 -66 -50 -37 -88 -61 -85 -53 3 8 17 53 32 102 15
48 29 93 32 100 2 7 -32 39 -86 77 -49 35 -90 68 -90 72 0 4 52 8 115 8 l114
0 32 105 c18 58 35 105 39 105 4 0 21 -47 39 -105z m1062 0 l32 -104 121 -3
121 -3 -97 -70 -96 -71 34 -104 c18 -58 34 -108 34 -113 0 -4 -42 24 -93 62
l-93 69 -89 -64 c-48 -35 -92 -64 -96 -64 -4 0 8 46 27 102 19 56 34 105 34
108 0 4 -40 36 -90 71 -49 35 -90 67 -90 71 0 4 52 9 116 10 l116 3 28 88 c34
106 38 117 44 117 3 0 19 -47 37 -105z m1063 -1 l33 -99 119 -5 119 -5 -92
-68 c-51 -38 -93 -74 -93 -80 0 -7 14 -54 31 -105 17 -51 29 -96 26 -99 -4 -4
-97 59 -172 118 -6 4 -50 -22 -103 -61 -50 -38 -92 -64 -92 -56 0 7 14 52 30
101 17 49 30 94 30 101 0 7 -42 43 -92 81 l-93 68 119 5 119 5 35 103 c19 57
36 101 38 99 3 -2 19 -49 38 -103z m1066 -6 l32 -98 114 0 c63 0 114 -3 114
-7 0 -5 -41 -37 -90 -72 -50 -35 -90 -67 -90 -71 0 -3 16 -53 35 -110 19 -57
34 -105 32 -106 -1 -1 -45 28 -96 66 l-95 68 -93 -69 c-51 -38 -93 -66 -93
-61 0 4 16 55 35 112 19 57 34 104 32 105 -1 1 -45 33 -97 71 l-95 69 121 3
120 3 34 104 c19 58 37 102 41 98 3 -5 21 -52 39 -105z m1207 -98 c62 0 113
-4 113 -8 0 -4 -40 -37 -90 -72 -49 -35 -90 -65 -90 -65 0 -1 13 -39 28 -86
52 -154 55 -149 -47 -74 -49 36 -95 65 -102 64 -8 0 -52 -29 -99 -64 -47 -35
-86 -62 -87 -61 -2 1 13 49 32 106 19 57 35 107 35 111 0 3 -40 35 -90 70 -49
34 -90 67 -90 71 0 4 51 8 114 8 l114 0 33 98 c17 53 34 101 37 107 3 5 22
-39 41 -98 l35 -107 113 0z m919 94 l27 -93 121 -3 121 -3 -93 -68 c-50 -37
-92 -73 -92 -80 0 -6 14 -55 30 -107 16 -52 30 -99 30 -103 0 -5 -17 4 -37 20
-21 17 -63 48 -94 70 l-56 41 -87 -65 c-49 -35 -90 -62 -93 -60 -2 3 9 48 26
101 17 53 31 100 31 105 0 5 -40 38 -90 73 -49 34 -89 66 -90 70 0 4 53 9 117
10 l117 3 27 85 c15 47 30 94 33 105 9 29 19 8 52 -101z"/>
<path d="M320 4215 l0 -405 10100 0 10100 0 0 405 0 405 -10100 0 -10100 0 0
-405z"/>
<path d="M320 2580 l0 -410 10100 0 10100 0 0 410 0 410 -10100 0 -10100 0 0
-410z"/>
<path d="M320 947 l0 -404 152 -6 c190 -9 20011 -9 20032 -1 14 5 16 51 16
410 l0 404 -10100 0 -10100 0 0 -403z"/>
</g>
</svg>
